<?xml version="1.0" encoding="UTF-8" standalone="no"?>
<!DOCTYPE svg PUBLIC "-//W3C//DTD SVG 1.1//EN"
 "http://www.w3.org/Graphics/SVG/1.1/DTD/svg11.dtd">
<!-- Generated by graphviz version 11.0.0 (20240428.1522)
 -->
<!-- Pages: 1 -->
<svg width="864pt" height="1168pt"
 viewBox="0.00 0.00 864.00 1168.40" xmlns="http://www.w3.org/2000/svg" xmlns:xlink="http://www.w3.org/1999/xlink">
<g id="graph0" class="graph" transform="scale(0.637168 0.637168) rotate(0) translate(4 1829.74)">
<polygon fill="white" stroke="none" points="-4,4 -4,-1829.74 1352,-1829.74 1352,4 -4,4"/>
<g id="clust1" class="cluster">
<title>cluster_top</title>
<polygon fill="none" stroke="black" points="793,-1478.94 793,-1817.74 941,-1817.74 941,-1478.94 793,-1478.94"/>
</g>
<g id="clust2" class="cluster">
<title>cluster_stage_1</title>
<polygon fill="none" stroke="black" points="121,-1223 121,-1440.94 709,-1440.94 709,-1223 121,-1223"/>
</g>
<g id="clust3" class="cluster">
<title>cluster_stage_2</title>
<polygon fill="none" stroke="black" points="47,-967.05 47,-1185 635,-1185 635,-967.05 47,-967.05"/>
</g>
<g id="clust4" class="cluster">
<title>cluster_stage_3</title>
<polygon fill="none" stroke="black" points="195,-711.1 195,-929.05 783,-929.05 783,-711.1 195,-711.1"/>
</g>
<g id="clust5" class="cluster">
<title>cluster_stage_4</title>
<polygon fill="none" stroke="black" points="343,-455.15 343,-673.1 931,-673.1 931,-455.15 343,-455.15"/>
</g>
<g id="clust6" class="cluster">
<title>cluster_stage_5</title>
<polygon fill="none" stroke="black" points="565,-199.2 565,-417.15 1153,-417.15 1153,-199.2 565,-199.2"/>
</g>
<g id="clust7" class="cluster">
<title>cluster_stage_6</title>
<polygon fill="none" stroke="black" points="639,-103.6 639,-161.2 1227,-161.2 1227,-103.6 639,-103.6"/>
</g>
<g id="clust8" class="cluster">
<title>cluster_bottom</title>
<polygon fill="none" stroke="black" points="179,-8 179,-65.6 487,-65.6 487,-8 179,-8"/>
</g>
<!-- input -->
<g id="node1" class="node">
<title>input</title>
<polygon fill="#a6cee3" stroke="#a6cee3" points="909.02,-1809.74 824.98,-1809.74 824.98,-1773.74 909.02,-1773.74 909.02,-1809.74"/>
<text text-anchor="middle" x="867" y="-1787.54" font-family="Times,serif" font-size="14.00">Input Image</text>
</g>
<!-- vgg19 -->
<g id="node2" class="node">
<title>vgg19</title>
<polygon fill="#1f78b4" stroke="#1f78b4" points="918.15,-1719.74 815.85,-1719.74 815.85,-1678.14 918.15,-1678.14 918.15,-1719.74"/>
<text text-anchor="middle" x="867" y="-1703.14" font-family="Times,serif" font-size="14.00">VGG19</text>
<text text-anchor="middle" x="867" y="-1686.34" font-family="Times,serif" font-size="14.00">(first 24 layers)</text>
</g>
<!-- input&#45;&gt;vgg19 -->
<g id="edge1" class="edge">
<title>input&#45;&gt;vgg19</title>
<path fill="none" stroke="black" d="M867,-1773.67C867,-1761.79 867,-1745.6 867,-1731.42"/>
<polygon fill="black" stroke="black" points="870.5,-1731.63 867,-1721.63 863.5,-1731.63 870.5,-1731.63"/>
</g>
<!-- conv1 -->
<g id="node3" class="node">
<title>conv1</title>
<polygon fill="#b2df8a" stroke="#b2df8a" points="932.61,-1624.14 801.39,-1624.14 801.39,-1582.54 932.61,-1582.54 932.61,-1624.14"/>
<text text-anchor="middle" x="867" y="-1607.54" font-family="Times,serif" font-size="14.00">Conv2d(512 &#45;&gt; 256)</text>
<text text-anchor="middle" x="867" y="-1590.74" font-family="Times,serif" font-size="14.00">ReLU</text>
</g>
<!-- vgg19&#45;&gt;conv1 -->
<g id="edge2" class="edge">
<title>vgg19&#45;&gt;conv1</title>
<path fill="none" stroke="black" d="M867,-1678.09C867,-1665.77 867,-1649.66 867,-1635.64"/>
<polygon fill="black" stroke="black" points="870.5,-1636 867,-1626 863.5,-1636 870.5,-1636"/>
</g>
<!-- conv2 -->
<g id="node4" class="node">
<title>conv2</title>
<polygon fill="#fb9a99" stroke="#fb9a99" points="932.61,-1528.54 801.39,-1528.54 801.39,-1486.94 932.61,-1486.94 932.61,-1528.54"/>
<text text-anchor="middle" x="867" y="-1511.94" font-family="Times,serif" font-size="14.00">Conv2d(256 &#45;&gt; 128)</text>
<text text-anchor="middle" x="867" y="-1495.14" font-family="Times,serif" font-size="14.00">ReLU</text>
</g>
<!-- conv1&#45;&gt;conv2 -->
<g id="edge3" class="edge">
<title>conv1&#45;&gt;conv2</title>
<path fill="none" stroke="black" d="M867,-1582.49C867,-1570.17 867,-1554.06 867,-1540.04"/>
<polygon fill="black" stroke="black" points="870.5,-1540.4 867,-1530.4 863.5,-1540.4 870.5,-1540.4"/>
</g>
<!-- m1_2 -->
<g id="node5" class="node">
<title>m1_2</title>
<polygon fill="#fdbf6f" stroke="#fdbf6f" points="701.47,-1432.94 436.53,-1432.94 436.53,-1391.34 701.47,-1391.34 701.47,-1432.94"/>
<text text-anchor="middle" x="569" y="-1416.34" font-family="Times,serif" font-size="14.00">Belief Map Stage 1</text>
<text text-anchor="middle" x="569" y="-1399.54" font-family="Times,serif" font-size="14.00">Conv2d &#45;&gt; ReLU &#45;&gt; ... &#45;&gt; Conv2d(128 &#45;&gt; 9)</text>
</g>
<!-- conv2&#45;&gt;m1_2 -->
<g id="edge20" class="edge">
<title>conv2&#45;&gt;m1_2</title>
<path fill="none" stroke="black" d="M802.71,-1486.55C756.18,-1471.94 693.15,-1452.14 644.27,-1436.79"/>
<polygon fill="black" stroke="black" points="645.47,-1433.49 634.88,-1433.84 643.37,-1440.17 645.47,-1433.49"/>
</g>
<!-- m1_1 -->
<g id="node6" class="node">
<title>m1_1</title>
<polygon fill="#cab2d6" stroke="#cab2d6" points="400.97,-1432.94 129.03,-1432.94 129.03,-1391.34 400.97,-1391.34 400.97,-1432.94"/>
<text text-anchor="middle" x="265" y="-1416.34" font-family="Times,serif" font-size="14.00">Affinity Map Stage 1</text>
<text text-anchor="middle" x="265" y="-1399.54" font-family="Times,serif" font-size="14.00">Conv2d &#45;&gt; ReLU &#45;&gt; ... &#45;&gt; Conv2d(128 &#45;&gt; 16)</text>
</g>
<!-- conv2&#45;&gt;m1_1 -->
<g id="edge21" class="edge">
<title>conv2&#45;&gt;m1_1</title>
<path fill="none" stroke="black" d="M801.23,-1497.77C713.81,-1485.69 554.57,-1463.13 419,-1440.94 408.24,-1439.18 397.07,-1437.29 385.89,-1435.35"/>
<polygon fill="black" stroke="black" points="386.65,-1431.93 376.2,-1433.66 385.45,-1438.83 386.65,-1431.93"/>
</g>
<!-- m2_2 -->
<g id="node8" class="node">
<title>m2_2</title>
<polygon fill="#fdbf6f" stroke="#fdbf6f" points="627.47,-1177 362.53,-1177 362.53,-1135.4 627.47,-1135.4 627.47,-1177"/>
<text text-anchor="middle" x="495" y="-1160.4" font-family="Times,serif" font-size="14.00">Belief Map Stage 2</text>
<text text-anchor="middle" x="495" y="-1143.6" font-family="Times,serif" font-size="14.00">Conv2d &#45;&gt; ReLU &#45;&gt; ... &#45;&gt; Conv2d(384 &#45;&gt; 9)</text>
</g>
<!-- conv2&#45;&gt;m2_2 -->
<g id="edge28" class="edge">
<title>conv2&#45;&gt;m2_2</title>
<path fill="none" stroke="black" d="M800.94,-1505.97C625.5,-1503.24 158.12,-1491.26 112,-1440.94 46.55,-1369.54 49.26,-1296.8 112,-1223 145.98,-1183.03 293.32,-1194 345,-1185 355.17,-1183.22 365.71,-1181.35 376.29,-1179.44"/>
<polygon fill="black" stroke="black" points="376.6,-1182.94 385.82,-1177.71 375.35,-1176.05 376.6,-1182.94"/>
</g>
<!-- m2_1 -->
<g id="node9" class="node">
<title>m2_1</title>
<polygon fill="#cab2d6" stroke="#cab2d6" points="326.97,-1177 55.03,-1177 55.03,-1135.4 326.97,-1135.4 326.97,-1177"/>
<text text-anchor="middle" x="191" y="-1160.4" font-family="Times,serif" font-size="14.00">Affinity Map Stage 2</text>
<text text-anchor="middle" x="191" y="-1143.6" font-family="Times,serif" font-size="14.00">Conv2d &#45;&gt; ReLU &#45;&gt; ... &#45;&gt; Conv2d(384 &#45;&gt; 16)</text>
</g>
<!-- conv2&#45;&gt;m2_1 -->
<g id="edge29" class="edge">
<title>conv2&#45;&gt;m2_1</title>
<path fill="none" stroke="black" d="M801.1,-1505.96C619.32,-1503.17 120.72,-1490.98 68,-1440.94 -2.4,-1374.12 2.32,-1305.16 54,-1223 65.31,-1205.01 83.07,-1191.83 102.09,-1182.21"/>
<polygon fill="black" stroke="black" points="103.49,-1185.42 111.06,-1178 100.52,-1179.08 103.49,-1185.42"/>
</g>
<!-- m3_2 -->
<g id="node11" class="node">
<title>m3_2</title>
<polygon fill="#fdbf6f" stroke="#fdbf6f" points="775.47,-921.05 510.53,-921.05 510.53,-879.45 775.47,-879.45 775.47,-921.05"/>
<text text-anchor="middle" x="643" y="-904.45" font-family="Times,serif" font-size="14.00">Belief Map Stage 3</text>
<text text-anchor="middle" x="643" y="-887.65" font-family="Times,serif" font-size="14.00">Conv2d &#45;&gt; ReLU &#45;&gt; ... &#45;&gt; Conv2d(384 &#45;&gt; 9)</text>
</g>
<!-- conv2&#45;&gt;m3_2 -->
<g id="edge36" class="edge">
<title>conv2&#45;&gt;m3_2</title>
<path fill="none" stroke="black" d="M861.3,-1486.47C850.92,-1447.7 830,-1360.25 830,-1285.17 830,-1285.17 830,-1285.17 830,-1155.2 830,-1069.11 838.6,-1033.6 784,-967.05 769.28,-949.1 748.55,-935.78 727.51,-926.02"/>
<polygon fill="black" stroke="black" points="729.13,-922.91 718.57,-922.11 726.33,-929.32 729.13,-922.91"/>
</g>
<!-- m3_1 -->
<g id="node12" class="node">
<title>m3_1</title>
<polygon fill="#cab2d6" stroke="#cab2d6" points="474.97,-921.05 203.03,-921.05 203.03,-879.45 474.97,-879.45 474.97,-921.05"/>
<text text-anchor="middle" x="339" y="-904.45" font-family="Times,serif" font-size="14.00">Affinity Map Stage 3</text>
<text text-anchor="middle" x="339" y="-887.65" font-family="Times,serif" font-size="14.00">Conv2d &#45;&gt; ReLU &#45;&gt; ... &#45;&gt; Conv2d(384 &#45;&gt; 16)</text>
</g>
<!-- conv2&#45;&gt;m3_1 -->
<g id="edge37" class="edge">
<title>conv2&#45;&gt;m3_1</title>
<path fill="none" stroke="black" d="M848.67,-1486.46C817.14,-1449.37 756,-1366.92 756,-1285.17 756,-1285.17 756,-1285.17 756,-1155.2 756,-1057.88 723.02,-1023.84 644,-967.05 635.92,-961.24 536.68,-940.43 453.56,-923.75"/>
<polygon fill="black" stroke="black" points="454.45,-920.36 443.96,-921.83 453.07,-927.22 454.45,-920.36"/>
</g>
<!-- m4_2 -->
<g id="node14" class="node">
<title>m4_2</title>
<polygon fill="#fdbf6f" stroke="#fdbf6f" points="923.47,-665.1 658.53,-665.1 658.53,-623.5 923.47,-623.5 923.47,-665.1"/>
<text text-anchor="middle" x="791" y="-648.5" font-family="Times,serif" font-size="14.00">Belief Map Stage 4</text>
<text text-anchor="middle" x="791" y="-631.7" font-family="Times,serif" font-size="14.00">Conv2d &#45;&gt; ReLU &#45;&gt; ... &#45;&gt; Conv2d(384 &#45;&gt; 9)</text>
</g>
<!-- conv2&#45;&gt;m4_2 -->
<g id="edge44" class="edge">
<title>conv2&#45;&gt;m4_2</title>
<path fill="none" stroke="black" d="M892.31,-1486.55C905.81,-1474.58 921.72,-1458.37 932,-1440.94 968.69,-1378.78 978,-1357.36 978,-1285.17 978,-1285.17 978,-1285.17 978,-899.25 978,-813.16 986.6,-777.66 932,-711.1 917.28,-693.15 896.55,-679.84 875.51,-670.07"/>
<polygon fill="black" stroke="black" points="877.13,-666.96 866.57,-666.16 874.33,-673.37 877.13,-666.96"/>
</g>
<!-- m4_1 -->
<g id="node15" class="node">
<title>m4_1</title>
<polygon fill="#cab2d6" stroke="#cab2d6" points="622.97,-665.1 351.03,-665.1 351.03,-623.5 622.97,-623.5 622.97,-665.1"/>
<text text-anchor="middle" x="487" y="-648.5" font-family="Times,serif" font-size="14.00">Affinity Map Stage 4</text>
<text text-anchor="middle" x="487" y="-631.7" font-family="Times,serif" font-size="14.00">Conv2d &#45;&gt; ReLU &#45;&gt; ... &#45;&gt; Conv2d(384 &#45;&gt; 16)</text>
</g>
<!-- conv2&#45;&gt;m4_1 -->
<g id="edge45" class="edge">
<title>conv2&#45;&gt;m4_1</title>
<path fill="none" stroke="black" d="M872.7,-1486.47C883.08,-1447.7 904,-1360.25 904,-1285.17 904,-1285.17 904,-1285.17 904,-899.25 904,-801.93 871.02,-767.89 792,-711.1 783.92,-705.29 684.68,-684.48 601.56,-667.8"/>
<polygon fill="black" stroke="black" points="602.45,-664.41 591.96,-665.88 601.07,-671.27 602.45,-664.41"/>
</g>
<!-- m5_2 -->
<g id="node17" class="node">
<title>m5_2</title>
<polygon fill="#fdbf6f" stroke="#fdbf6f" points="1145.47,-409.15 880.53,-409.15 880.53,-367.55 1145.47,-367.55 1145.47,-409.15"/>
<text text-anchor="middle" x="1013" y="-392.55" font-family="Times,serif" font-size="14.00">Belief Map Stage 5</text>
<text text-anchor="middle" x="1013" y="-375.75" font-family="Times,serif" font-size="14.00">Conv2d &#45;&gt; ReLU &#45;&gt; ... &#45;&gt; Conv2d(384 &#45;&gt; 9)</text>
</g>
<!-- conv2&#45;&gt;m5_2 -->
<g id="edge52" class="edge">
<title>conv2&#45;&gt;m5_2</title>
<path fill="none" stroke="black" d="M932.63,-1502.55C979.64,-1496.13 1041.25,-1480.19 1080,-1440.94 1130.73,-1389.58 1126,-1357.36 1126,-1285.17 1126,-1285.17 1126,-1285.17 1126,-643.3 1126,-557.21 1122.56,-529.98 1080,-455.15 1071.89,-440.89 1059.81,-427.68 1048.13,-416.9"/>
<polygon fill="black" stroke="black" points="1050.71,-414.5 1040.9,-410.49 1046.07,-419.74 1050.71,-414.5"/>
</g>
<!-- m5_1 -->
<g id="node18" class="node">
<title>m5_1</title>
<polygon fill="#cab2d6" stroke="#cab2d6" points="844.97,-409.15 573.03,-409.15 573.03,-367.55 844.97,-367.55 844.97,-409.15"/>
<text text-anchor="middle" x="709" y="-392.55" font-family="Times,serif" font-size="14.00">Affinity Map Stage 5</text>
<text text-anchor="middle" x="709" y="-375.75" font-family="Times,serif" font-size="14.00">Conv2d &#45;&gt; ReLU &#45;&gt; ... &#45;&gt; Conv2d(384 &#45;&gt; 16)</text>
</g>
<!-- conv2&#45;&gt;m5_1 -->
<g id="edge53" class="edge">
<title>conv2&#45;&gt;m5_1</title>
<path fill="none" stroke="black" d="M910.87,-1486.56C931.65,-1475.36 955.65,-1459.86 973,-1440.94 1025.47,-1383.74 1052,-1362.8 1052,-1285.17 1052,-1285.17 1052,-1285.17 1052,-643.3 1052,-545.98 1017.14,-514.48 940,-455.15 920.06,-439.81 867.61,-424.32 817.72,-412.22"/>
<polygon fill="black" stroke="black" points="818.8,-408.88 808.26,-409.96 817.18,-415.69 818.8,-408.88"/>
</g>
<!-- m6_2 -->
<g id="node20" class="node">
<title>m6_2</title>
<polygon fill="#fdbf6f" stroke="#fdbf6f" points="1219.47,-153.2 954.53,-153.2 954.53,-111.6 1219.47,-111.6 1219.47,-153.2"/>
<text text-anchor="middle" x="1087" y="-136.6" font-family="Times,serif" font-size="14.00">Belief Map Stage 6</text>
<text text-anchor="middle" x="1087" y="-119.8" font-family="Times,serif" font-size="14.00">Conv2d &#45;&gt; ReLU &#45;&gt; ... &#45;&gt; Conv2d(384 &#45;&gt; 9)</text>
</g>
<!-- conv2&#45;&gt;m6_2 -->
<g id="edge60" class="edge">
<title>conv2&#45;&gt;m6_2</title>
<path fill="none" stroke="black" d="M932.87,-1505.68C1064.61,-1499.7 1348,-1465.83 1348,-1285.17 1348,-1285.17 1348,-1285.17 1348,-387.35 1348,-274.81 1221.81,-195.99 1144.91,-158.41"/>
<polygon fill="black" stroke="black" points="1146.77,-155.42 1136.24,-154.26 1143.74,-161.73 1146.77,-155.42"/>
</g>
<!-- m6_1 -->
<g id="node21" class="node">
<title>m6_1</title>
<polygon fill="#cab2d6" stroke="#cab2d6" points="918.97,-153.2 647.03,-153.2 647.03,-111.6 918.97,-111.6 918.97,-153.2"/>
<text text-anchor="middle" x="783" y="-136.6" font-family="Times,serif" font-size="14.00">Affinity Map Stage 6</text>
<text text-anchor="middle" x="783" y="-119.8" font-family="Times,serif" font-size="14.00">Conv2d &#45;&gt; ReLU &#45;&gt; ... &#45;&gt; Conv2d(384 &#45;&gt; 16)</text>
</g>
<!-- conv2&#45;&gt;m6_1 -->
<g id="edge61" class="edge">
<title>conv2&#45;&gt;m6_1</title>
<path fill="none" stroke="black" d="M932.94,-1505.05C989.6,-1500.35 1070.54,-1485.52 1125,-1440.94 1184.46,-1392.28 1200,-1362.01 1200,-1285.17 1200,-1285.17 1200,-1285.17 1200,-387.35 1200,-302.04 1223.28,-258.55 1162,-199.2 1125.58,-163.92 986.95,-169.93 937,-161.2 926.77,-159.41 916.16,-157.54 905.52,-155.65"/>
<polygon fill="black" stroke="black" points="906.37,-152.24 895.91,-153.93 905.14,-159.13 906.37,-152.24"/>
</g>
<!-- m1_2&#45;&gt;m1_1 -->
<!-- concat1 -->
<g id="node7" class="node">
<title>concat1</title>
<ellipse fill="#ff7f00" stroke="#ff7f00" cx="569" cy="-1284.17" rx="73.73" ry="53.17"/>
<text text-anchor="middle" x="569" y="-1305.17" font-family="Times,serif" font-size="14.00">Concatenate</text>
<text text-anchor="middle" x="569" y="-1288.37" font-family="Times,serif" font-size="14.00">[Belief Map 1,</text>
<text text-anchor="middle" x="569" y="-1271.57" font-family="Times,serif" font-size="14.00">Affinity Map 1,</text>
<text text-anchor="middle" x="569" y="-1254.77" font-family="Times,serif" font-size="14.00">VGG output]</text>
</g>
<!-- m1_2&#45;&gt;concat1 -->
<!-- m1_2&#45;&gt;concat1 -->
<g id="edge22" class="edge">
<title>m1_2&#45;&gt;concat1</title>
<path fill="none" stroke="black" d="M579.23,-1390.9C581.41,-1379.15 582.5,-1363.64 582.5,-1348.13"/>
<polygon fill="black" stroke="black" points="586,-1348.34 582.33,-1338.4 579.01,-1348.46 586,-1348.34"/>
</g>
<!-- m1_2&#45;&gt;m2_2 -->
<!-- output_belief -->
<g id="node22" class="node">
<title>output_belief</title>
<polygon fill="#ff7f00" stroke="#ff7f00" points="478.8,-57.6 351.2,-57.6 351.2,-16 478.8,-16 478.8,-57.6"/>
<text text-anchor="middle" x="415" y="-41" font-family="Times,serif" font-size="14.00">Belief Maps</text>
<text text-anchor="middle" x="415" y="-24.2" font-family="Times,serif" font-size="14.00">[out1_2, ..., out6_2]</text>
</g>
<!-- m1_2&#45;&gt;output_belief -->
<g id="edge26" class="edge">
<title>m1_2&#45;&gt;output_belief</title>
<path fill="none" stroke="black" stroke-dasharray="5,2" d="M701.61,-1391.15C905.83,-1356.57 1274,-1277.53 1274,-1157.2 1274,-1157.2 1274,-1157.2 1274,-259.37 1274,-188.11 1290.24,-149.82 1236,-103.6 1179.97,-55.86 682.88,-42.35 490.54,-38.89"/>
<polygon fill="black" stroke="black" points="490.71,-35.39 480.65,-38.71 490.59,-42.39 490.71,-35.39"/>
</g>
<!-- m1_1&#45;&gt;concat1 -->
<g id="edge23" class="edge">
<title>m1_1&#45;&gt;concat1</title>
<path fill="none" stroke="black" d="M303.61,-1390.9C351.11,-1369.58 432.07,-1335.88 492.27,-1312.27"/>
<polygon fill="black" stroke="black" points="493.42,-1315.58 501.47,-1308.68 490.88,-1309.06 493.42,-1315.58"/>
</g>
<!-- m1_1&#45;&gt;m2_1 -->
<!-- output_affinity -->
<g id="node23" class="node">
<title>output_affinity</title>
<polygon fill="#ff7f00" stroke="#ff7f00" points="314.8,-57.6 187.2,-57.6 187.2,-16 314.8,-16 314.8,-57.6"/>
<text text-anchor="middle" x="251" y="-41" font-family="Times,serif" font-size="14.00">Affinity Maps</text>
<text text-anchor="middle" x="251" y="-24.2" font-family="Times,serif" font-size="14.00">[out1_1, ..., out6_1]</text>
</g>
<!-- m1_1&#45;&gt;output_affinity -->
<g id="edge27" class="edge">
<title>m1_1&#45;&gt;output_affinity</title>
<path fill="none" stroke="black" stroke-dasharray="5,2" d="M215.78,-1390.87C139.14,-1355.64 0,-1275.4 0,-1157.2 0,-1157.2 0,-1157.2 0,-259.37 0,-176.38 39.65,-157.23 103,-103.6 124.22,-85.64 151.13,-71.73 176.16,-61.43"/>
<polygon fill="black" stroke="black" points="177.34,-64.73 185.35,-57.8 174.76,-58.22 177.34,-64.73"/>
</g>
<!-- concat1&#45;&gt;m1_1 -->
<!-- concat1&#45;&gt;m2_2 -->
<g id="edge24" class="edge">
<title>concat1&#45;&gt;m2_2</title>
<path fill="none" stroke="black" d="M540.6,-1234.83C531.16,-1218.75 520.92,-1201.32 512.54,-1187.06"/>
<polygon fill="black" stroke="black" points="515.66,-1185.45 507.57,-1178.6 509.62,-1189 515.66,-1185.45"/>
</g>
<!-- concat1&#45;&gt;m2_1 -->
<g id="edge25" class="edge">
<title>concat1&#45;&gt;m2_1</title>
<path fill="none" stroke="black" d="M502.29,-1260.94C435,-1238.51 331.45,-1204 262.5,-1181.02"/>
<polygon fill="black" stroke="black" points="263.77,-1177.76 253.17,-1177.92 261.55,-1184.4 263.77,-1177.76"/>
</g>
<!-- concat2 -->
<g id="node10" class="node">
<title>concat2</title>
<ellipse fill="#ff7f00" stroke="#ff7f00" cx="553" cy="-1028.22" rx="73.73" ry="53.17"/>
<text text-anchor="middle" x="553" y="-1049.22" font-family="Times,serif" font-size="14.00">Concatenate</text>
<text text-anchor="middle" x="553" y="-1032.42" font-family="Times,serif" font-size="14.00">[Belief Map 2,</text>
<text text-anchor="middle" x="553" y="-1015.62" font-family="Times,serif" font-size="14.00">Affinity Map 2,</text>
<text text-anchor="middle" x="553" y="-998.82" font-family="Times,serif" font-size="14.00">VGG output]</text>
</g>
<!-- concat1&#45;&gt;concat2 -->
<!-- m2_2&#45;&gt;m2_1 -->
<!-- m2_2&#45;&gt;concat2 -->
<!-- m2_2&#45;&gt;concat2 -->
<g id="edge30" class="edge">
<title>m2_2&#45;&gt;concat2</title>
<path fill="none" stroke="black" d="M514.55,-1134.96C522.25,-1123.03 530.61,-1107.24 537.82,-1091.5"/>
<polygon fill="black" stroke="black" points="540.92,-1093.16 541.77,-1082.6 534.52,-1090.32 540.92,-1093.16"/>
</g>
<!-- m2_2&#45;&gt;m3_2 -->
<!-- m2_2&#45;&gt;output_belief -->
<g id="edge34" class="edge">
<title>m2_2&#45;&gt;output_belief</title>
<path fill="none" stroke="black" stroke-dasharray="5,2" d="M442.56,-1134.93C369.46,-1103.45 239.84,-1035.17 186,-929.05 27.1,-615.84 309.99,-183.3 393.08,-67.37"/>
<polygon fill="black" stroke="black" points="395.9,-69.43 398.93,-59.28 390.23,-65.33 395.9,-69.43"/>
</g>
<!-- m2_1&#45;&gt;concat2 -->
<g id="edge31" class="edge">
<title>m2_1&#45;&gt;concat2</title>
<path fill="none" stroke="black" d="M238.93,-1134.96C299.12,-1112.56 402.5,-1076.52 474.29,-1052.85"/>
<polygon fill="black" stroke="black" points="475.23,-1056.22 483.64,-1049.78 473.05,-1049.57 475.23,-1056.22"/>
</g>
<!-- m2_1&#45;&gt;m3_1 -->
<!-- m2_1&#45;&gt;output_affinity -->
<g id="edge35" class="edge">
<title>m2_1&#45;&gt;output_affinity</title>
<path fill="none" stroke="black" stroke-dasharray="5,2" d="M174.24,-1134.93C141.89,-1093.7 74,-995.9 74,-901.25 74,-901.25 74,-901.25 74,-259.37 74,-173.16 156.81,-101.23 209.14,-64.37"/>
<polygon fill="black" stroke="black" points="211.04,-67.31 217.29,-58.76 207.07,-61.55 211.04,-67.31"/>
</g>
<!-- concat2&#45;&gt;m2_1 -->
<!-- concat2&#45;&gt;m3_2 -->
<g id="edge32" class="edge">
<title>concat2&#45;&gt;m3_2</title>
<path fill="none" stroke="black" d="M586.26,-980.67C598.25,-963.88 611.44,-945.42 622.08,-930.52"/>
<polygon fill="black" stroke="black" points="624.83,-932.7 627.79,-922.53 619.13,-928.63 624.83,-932.7"/>
</g>
<!-- concat2&#45;&gt;m3_1 -->
<g id="edge33" class="edge">
<title>concat2&#45;&gt;m3_1</title>
<path fill="none" stroke="black" d="M496.21,-993.79C460.75,-972.92 415.78,-946.44 383.02,-927.16"/>
<polygon fill="black" stroke="black" points="384.97,-924.25 374.58,-922.19 381.42,-930.28 384.97,-924.25"/>
</g>
<!-- concat3 -->
<g id="node13" class="node">
<title>concat3</title>
<ellipse fill="#ff7f00" stroke="#ff7f00" cx="701" cy="-772.27" rx="73.73" ry="53.17"/>
<text text-anchor="middle" x="701" y="-793.27" font-family="Times,serif" font-size="14.00">Concatenate</text>
<text text-anchor="middle" x="701" y="-776.47" font-family="Times,serif" font-size="14.00">[Belief Map 3,</text>
<text text-anchor="middle" x="701" y="-759.67" font-family="Times,serif" font-size="14.00">Affinity Map 3,</text>
<text text-anchor="middle" x="701" y="-742.87" font-family="Times,serif" font-size="14.00">VGG output]</text>
</g>
<!-- concat2&#45;&gt;concat3 -->
<!-- m3_2&#45;&gt;m3_1 -->
<!-- m3_2&#45;&gt;concat3 -->
<!-- m3_2&#45;&gt;concat3 -->
<g id="edge38" class="edge">
<title>m3_2&#45;&gt;concat3</title>
<path fill="none" stroke="black" d="M662.55,-879.01C670.25,-867.08 678.61,-851.29 685.82,-835.55"/>
<polygon fill="black" stroke="black" points="688.92,-837.21 689.77,-826.65 682.52,-834.37 688.92,-837.21"/>
</g>
<!-- m3_2&#45;&gt;m4_2 -->
<!-- m3_2&#45;&gt;output_belief -->
<g id="edge42" class="edge">
<title>m3_2&#45;&gt;output_belief</title>
<path fill="none" stroke="black" stroke-dasharray="5,2" d="M590.56,-878.98C517.46,-847.5 387.84,-779.22 334,-673.1 279.22,-565.12 376.27,-181.05 406.47,-68.81"/>
<polygon fill="black" stroke="black" points="409.78,-69.97 409.01,-59.4 403.02,-68.14 409.78,-69.97"/>
</g>
<!-- m3_1&#45;&gt;concat3 -->
<g id="edge39" class="edge">
<title>m3_1&#45;&gt;concat3</title>
<path fill="none" stroke="black" d="M386.93,-879.01C447.12,-856.61 550.5,-820.57 622.29,-796.9"/>
<polygon fill="black" stroke="black" points="623.23,-800.27 631.64,-793.83 621.05,-793.62 623.23,-800.27"/>
</g>
<!-- m3_1&#45;&gt;m4_1 -->
<!-- m3_1&#45;&gt;output_affinity -->
<g id="edge43" class="edge">
<title>m3_1&#45;&gt;output_affinity</title>
<path fill="none" stroke="black" stroke-dasharray="5,2" d="M325.57,-879.38C282.09,-813.07 148,-592.12 148,-389.35 148,-389.35 148,-389.35 148,-259.37 148,-184.56 196.88,-107.67 227.3,-67.07"/>
<polygon fill="black" stroke="black" points="230,-69.29 233.3,-59.22 224.44,-65.04 230,-69.29"/>
</g>
<!-- concat3&#45;&gt;m3_1 -->
<!-- concat3&#45;&gt;m4_2 -->
<g id="edge40" class="edge">
<title>concat3&#45;&gt;m4_2</title>
<path fill="none" stroke="black" d="M734.26,-724.72C746.25,-707.93 759.44,-689.47 770.08,-674.57"/>
<polygon fill="black" stroke="black" points="772.83,-676.76 775.79,-666.58 767.13,-672.69 772.83,-676.76"/>
</g>
<!-- concat3&#45;&gt;m4_1 -->
<g id="edge41" class="edge">
<title>concat3&#45;&gt;m4_1</title>
<path fill="none" stroke="black" d="M644.21,-737.84C608.75,-716.97 563.78,-690.49 531.02,-671.21"/>
<polygon fill="black" stroke="black" points="532.97,-668.3 522.58,-666.24 529.42,-674.33 532.97,-668.3"/>
</g>
<!-- concat4 -->
<g id="node16" class="node">
<title>concat4</title>
<ellipse fill="#ff7f00" stroke="#ff7f00" cx="820" cy="-516.32" rx="73.73" ry="53.17"/>
<text text-anchor="middle" x="820" y="-537.32" font-family="Times,serif" font-size="14.00">Concatenate</text>
<text text-anchor="middle" x="820" y="-520.52" font-family="Times,serif" font-size="14.00">[Belief Map 4,</text>
<text text-anchor="middle" x="820" y="-503.72" font-family="Times,serif" font-size="14.00">Affinity Map 4,</text>
<text text-anchor="middle" x="820" y="-486.92" font-family="Times,serif" font-size="14.00">VGG output]</text>
</g>
<!-- concat3&#45;&gt;concat4 -->
<!-- m4_2&#45;&gt;m4_1 -->
<!-- m4_2&#45;&gt;concat4 -->
<!-- m4_2&#45;&gt;concat4 -->
<g id="edge46" class="edge">
<title>m4_2&#45;&gt;concat4</title>
<path fill="none" stroke="black" d="M805.89,-623.06C810.71,-611.47 815.3,-596.23 818.85,-580.95"/>
<polygon fill="black" stroke="black" points="822.24,-581.85 820.92,-571.34 815.4,-580.38 822.24,-581.85"/>
</g>
<!-- m4_2&#45;&gt;m5_2 -->
<!-- m4_2&#45;&gt;output_belief -->
<g id="edge50" class="edge">
<title>m4_2&#45;&gt;output_belief</title>
<path fill="none" stroke="black" stroke-dasharray="5,2" d="M758.33,-623.23C704.03,-588.18 595.29,-510.58 536,-417.15 462.45,-301.25 430.2,-136.9 419.43,-69"/>
<polygon fill="black" stroke="black" points="422.92,-68.7 417.95,-59.34 416.01,-69.76 422.92,-68.7"/>
</g>
<!-- m4_1&#45;&gt;concat4 -->
<g id="edge47" class="edge">
<title>m4_1&#45;&gt;concat4</title>
<path fill="none" stroke="black" d="M530.27,-623.06C584.03,-601.18 675.99,-566.29 742.06,-542.62"/>
<polygon fill="black" stroke="black" points="743.17,-545.94 751.41,-539.29 740.82,-539.35 743.17,-545.94"/>
</g>
<!-- m4_1&#45;&gt;m5_1 -->
<!-- m4_1&#45;&gt;output_affinity -->
<g id="edge51" class="edge">
<title>m4_1&#45;&gt;output_affinity</title>
<path fill="none" stroke="black" stroke-dasharray="5,2" d="M479.15,-623.15C444.46,-534.17 304.87,-176 262.96,-68.47"/>
<polygon fill="black" stroke="black" points="266.32,-67.48 259.43,-59.43 259.8,-70.02 266.32,-67.48"/>
</g>
<!-- concat4&#45;&gt;m4_1 -->
<!-- concat4&#45;&gt;m5_2 -->
<g id="edge48" class="edge">
<title>concat4&#45;&gt;m5_2</title>
<path fill="none" stroke="black" d="M874.27,-479.9C905.53,-459.5 944.14,-434.29 972.69,-415.66"/>
<polygon fill="black" stroke="black" points="974.23,-418.83 980.69,-410.44 970.4,-412.97 974.23,-418.83"/>
</g>
<!-- concat4&#45;&gt;m5_1 -->
<g id="edge49" class="edge">
<title>concat4&#45;&gt;m5_1</title>
<path fill="none" stroke="black" d="M780.87,-470.91C765.28,-453.22 747.8,-433.38 733.98,-417.7"/>
<polygon fill="black" stroke="black" points="736.95,-415.78 727.72,-410.59 731.7,-420.41 736.95,-415.78"/>
</g>
<!-- concat5 -->
<g id="node19" class="node">
<title>concat5</title>
<ellipse fill="#ff7f00" stroke="#ff7f00" cx="721" cy="-260.37" rx="73.73" ry="53.17"/>
<text text-anchor="middle" x="721" y="-281.37" font-family="Times,serif" font-size="14.00">Concatenate</text>
<text text-anchor="middle" x="721" y="-264.57" font-family="Times,serif" font-size="14.00">[Belief Map 5,</text>
<text text-anchor="middle" x="721" y="-247.77" font-family="Times,serif" font-size="14.00">Affinity Map 5,</text>
<text text-anchor="middle" x="721" y="-230.97" font-family="Times,serif" font-size="14.00">VGG output]</text>
</g>
<!-- concat4&#45;&gt;concat5 -->
<!-- m5_2&#45;&gt;m5_1 -->
<!-- m5_2&#45;&gt;concat5 -->
<!-- m5_2&#45;&gt;concat5 -->
<g id="edge54" class="edge">
<title>m5_2&#45;&gt;concat5</title>
<path fill="none" stroke="black" d="M976.31,-367.11C931.43,-346.06 855.09,-312.95 797.39,-289.39"/>
<polygon fill="black" stroke="black" points="798.83,-286.2 788.24,-285.68 796.19,-292.68 798.83,-286.2"/>
</g>
<!-- m5_2&#45;&gt;m6_2 -->
<!-- m5_2&#45;&gt;output_belief -->
<g id="edge58" class="edge">
<title>m5_2&#45;&gt;output_belief</title>
<path fill="none" stroke="black" stroke-dasharray="5,2" d="M883.22,-367.05C780.52,-350.22 650.84,-326.95 629,-313.55 577.52,-281.96 476.46,-132.38 434.25,-67.71"/>
<polygon fill="black" stroke="black" points="437.2,-65.83 428.82,-59.36 431.33,-69.65 437.2,-65.83"/>
</g>
<!-- m5_1&#45;&gt;concat5 -->
<g id="edge55" class="edge">
<title>m5_1&#45;&gt;concat5</title>
<path fill="none" stroke="black" d="M700.7,-367.11C699.62,-355.19 700.04,-339.4 701.57,-323.67"/>
<polygon fill="black" stroke="black" points="705.04,-324.12 702.7,-313.78 698.08,-323.32 705.04,-324.12"/>
</g>
<!-- m5_1&#45;&gt;m6_1 -->
<!-- m5_1&#45;&gt;output_affinity -->
<g id="edge59" class="edge">
<title>m5_1&#45;&gt;output_affinity</title>
<path fill="none" stroke="black" stroke-dasharray="5,2" d="M661.94,-367.07C632.72,-353.6 594.96,-334.57 564,-313.55 448.55,-235.16 329.57,-118.55 277.78,-65.67"/>
<polygon fill="black" stroke="black" points="280.6,-63.55 271.11,-58.83 275.58,-68.43 280.6,-63.55"/>
</g>
<!-- concat5&#45;&gt;m5_1 -->
<!-- concat5&#45;&gt;m6_2 -->
<g id="edge56" class="edge">
<title>concat5&#45;&gt;m6_2</title>
<path fill="none" stroke="black" d="M787.28,-236.56C852.36,-214.16 951.23,-180.13 1017.42,-157.35"/>
<polygon fill="black" stroke="black" points="1018.42,-160.71 1026.73,-154.14 1016.14,-154.09 1018.42,-160.71"/>
</g>
<!-- concat5&#45;&gt;m6_1 -->
<g id="edge57" class="edge">
<title>concat5&#45;&gt;m6_1</title>
<path fill="none" stroke="black" d="M745.33,-209.95C753.06,-194.24 761.37,-177.35 768.22,-163.44"/>
<polygon fill="black" stroke="black" points="771.19,-165.33 772.46,-154.81 764.91,-162.24 771.19,-165.33"/>
</g>
<!-- m6_2&#45;&gt;m6_1 -->
<!-- m6_2&#45;&gt;output_belief -->
<g id="edge62" class="edge">
<title>m6_2&#45;&gt;output_belief</title>
<path fill="none" stroke="black" stroke-dasharray="5,2" d="M981.82,-111.11C966.8,-108.45 951.52,-105.86 937,-103.6 778.61,-78.96 592.08,-57.18 490.42,-45.92"/>
<polygon fill="black" stroke="black" points="490.88,-42.45 480.56,-44.83 490.11,-49.41 490.88,-42.45"/>
</g>
<!-- m6_1&#45;&gt;output_affinity -->
<g id="edge63" class="edge">
<title>m6_1&#45;&gt;output_affinity</title>
<path fill="none" stroke="black" stroke-dasharray="5,2" d="M646.7,-114.24C536.62,-99.86 390.86,-79.52 333,-65.6 327.79,-64.35 322.45,-62.91 317.1,-61.35"/>
<polygon fill="black" stroke="black" points="318.21,-58.03 307.63,-58.47 316.17,-64.73 318.21,-58.03"/>
</g>
</g>
</svg>
